<svg width="22" height="22" viewBox="0 0 22 22" fill="none" xmlns="http://www.w3.org/2000/svg">
<path d="M3.93355 3.93355L3.93358 3.93358L3.93811 3.92893C4.11935 3.74293 4.43913 3.73624 4.63645 3.93355L5.69645 4.99355L5.69642 4.99358L5.70107 4.99811C5.88133 5.17376 5.89103 5.49668 5.69189 5.70107C5.51065 5.88707 5.19087 5.89376 4.99355 5.69645L3.93355 4.63645L3.93358 4.63642L3.92893 4.63189C3.74293 4.45065 3.73624 4.13087 3.93355 3.93355ZM16.3036 16.3036L16.3036 16.3036L16.3081 16.2989C16.4893 16.1129 16.8091 16.1062 17.0064 16.3036L18.0664 17.3636L18.0664 17.3636L18.0711 17.3681C18.2571 17.5493 18.2638 17.8691 18.0664 18.0664L18.0664 18.0664L18.0619 18.0711C17.8807 18.2571 17.5609 18.2638 17.3636 18.0664L16.3036 17.0064L16.3036 17.0064L16.2989 17.0019C16.1129 16.8207 16.1062 16.5009 16.3036 16.3036ZM18.0664 3.93355L18.0664 3.93358L18.0711 3.93811C18.2571 4.11935 18.2638 4.43913 18.0664 4.63645L17.0064 5.69645L17.0064 5.69642L17.0019 5.70107C16.8262 5.88133 16.5033 5.89103 16.2989 5.69189C16.1129 5.51065 16.1062 5.19087 16.3036 4.99355L17.3636 3.93355L17.3636 3.93358L17.3681 3.92893C17.5493 3.74293 17.8691 3.73624 18.0664 3.93355ZM5.69645 16.3036L5.69642 16.3036L5.70107 16.3081C5.88707 16.4893 5.89376 16.8091 5.69645 17.0064L4.63645 18.0664L4.63642 18.0664L4.63189 18.0711C4.45624 18.2513 4.13332 18.261 3.92893 18.0619C3.74293 17.8807 3.73624 17.5609 3.93355 17.3636L4.99355 16.3036L4.99358 16.3036L4.99811 16.2989C5.17935 16.1129 5.49913 16.1062 5.69645 16.3036ZM14.5 11C14.5 9.07386 12.9261 7.5 11 7.5C9.07386 7.5 7.5 9.07386 7.5 11C7.5 12.9261 9.07386 14.5 11 14.5C12.9261 14.5 14.5 12.9261 14.5 11ZM6.5 11C6.5 8.51614 8.51614 6.5 11 6.5C13.4839 6.5 15.5 8.51614 15.5 11C15.5 13.4839 13.4839 15.5 11 15.5C8.51614 15.5 6.5 13.4839 6.5 11ZM3 11.5H1C0.726142 11.5 0.5 11.2739 0.5 11C0.5 10.7261 0.726142 10.5 1 10.5H3C3.27386 10.5 3.5 10.7261 3.5 11C3.5 11.2739 3.27386 11.5 3 11.5ZM21 11.5H19C18.7261 11.5 18.5 11.2739 18.5 11C18.5 10.7261 18.7261 10.5 19 10.5H21C21.2739 10.5 21.5 10.7261 21.5 11C21.5 11.2739 21.2739 11.5 21 11.5ZM10.5 3V1C10.5 0.726142 10.7261 0.5 11 0.5C11.2739 0.5 11.5 0.726142 11.5 1V3C11.5 3.27386 11.2739 3.5 11 3.5C10.7261 3.5 10.5 3.27386 10.5 3ZM10.5 21V19C10.5 18.7261 10.7261 18.5 11 18.5C11.2739 18.5 11.5 18.7261 11.5 19V21C11.5 21.2739 11.2739 21.5 11 21.5C10.7261 21.5 10.5 21.2739 10.5 21Z" fill="#E6E0E9" stroke="#E6E0E9"/>
</svg>
