<svg width="24" height="24" viewBox="0 0 24 24" fill="none" xmlns="http://www.w3.org/2000/svg">
<path d="M4.93355 4.93355L4.93358 4.93358L4.93811 4.92893C5.11935 4.74293 5.43913 4.73624 5.63645 4.93355L6.69645 5.99355L6.69642 5.99358L6.70107 5.99811C6.88133 6.17376 6.89103 6.49668 6.69189 6.70107C6.51065 6.88707 6.19087 6.89376 5.99355 6.69645L4.93355 5.63645L4.93358 5.63642L4.92893 5.63189C4.74293 5.45065 4.73624 5.13087 4.93355 4.93355ZM17.3036 17.3036L17.3036 17.3036L17.3081 17.2989C17.4893 17.1129 17.8091 17.1062 18.0064 17.3036L19.0664 18.3636L19.0664 18.3636L19.0711 18.3681C19.2571 18.5493 19.2638 18.8691 19.0664 19.0664L19.0664 19.0664L19.0619 19.0711C18.8807 19.2571 18.5609 19.2638 18.3636 19.0664L17.3036 18.0064L17.3036 18.0064L17.2989 18.0019C17.1129 17.8207 17.1062 17.5009 17.3036 17.3036ZM19.0664 4.93355L19.0664 4.93358L19.0711 4.93811C19.2571 5.11935 19.2638 5.43913 19.0664 5.63645L18.0064 6.69645L18.0064 6.69642L18.0019 6.70107C17.8262 6.88133 17.5033 6.89103 17.2989 6.69189C17.1129 6.51065 17.1062 6.19087 17.3036 5.99355L18.3636 4.93355L18.3636 4.93358L18.3681 4.92893C18.5493 4.74293 18.8691 4.73624 19.0664 4.93355ZM6.69645 17.3036L6.69642 17.3036L6.70107 17.3081C6.88707 17.4893 6.89376 17.8091 6.69645 18.0064L5.63645 19.0664L5.63642 19.0664L5.63189 19.0711C5.45624 19.2513 5.13332 19.261 4.92893 19.0619C4.74293 18.8807 4.73624 18.5609 4.93355 18.3636L5.99355 17.3036L5.99358 17.3036L5.99811 17.2989C6.17935 17.1129 6.49913 17.1062 6.69645 17.3036ZM15.5 12C15.5 10.0739 13.9261 8.5 12 8.5C10.0739 8.5 8.5 10.0739 8.5 12C8.5 13.9261 10.0739 15.5 12 15.5C13.9261 15.5 15.5 13.9261 15.5 12ZM7.5 12C7.5 9.51614 9.51614 7.5 12 7.5C14.4839 7.5 16.5 9.51614 16.5 12C16.5 14.4839 14.4839 16.5 12 16.5C9.51614 16.5 7.5 14.4839 7.5 12ZM4 12.5H2C1.72614 12.5 1.5 12.2739 1.5 12C1.5 11.7261 1.72614 11.5 2 11.5H4C4.27386 11.5 4.5 11.7261 4.5 12C4.5 12.2739 4.27386 12.5 4 12.5ZM22 12.5H20C19.7261 12.5 19.5 12.2739 19.5 12C19.5 11.7261 19.7261 11.5 20 11.5H22C22.2739 11.5 22.5 11.7261 22.5 12C22.5 12.2739 22.2739 12.5 22 12.5ZM11.5 4V2C11.5 1.72614 11.7261 1.5 12 1.5C12.2739 1.5 12.5 1.72614 12.5 2V4C12.5 4.27386 12.2739 4.5 12 4.5C11.7261 4.5 11.5 4.27386 11.5 4ZM11.5 22V20C11.5 19.7261 11.7261 19.5 12 19.5C12.2739 19.5 12.5 19.7261 12.5 20V22C12.5 22.2739 12.2739 22.5 12 22.5C11.7261 22.5 11.5 22.2739 11.5 22Z" fill="#000000" stroke="#000000"/>
</svg>
